<?xml version="1.0" encoding="utf-8"?>
<svg version="1.1" id="Layer_1" xmlns="http://www.w3.org/2000/svg" xmlns:xlink="http://www.w3.org/1999/xlink" x="0px" y="0px"
	 viewBox="0 0 82.1 89.81" style="enable-background:new 0 0 82.1 89.81;" xml:space="preserve">
<style type="text/css">
	.st0{fill:#010100;}
</style>
<g>
	<path class="st0" d="M67.88,83.48H14.22C6.38,83.48,0,77.1,0,69.26V20.55C0,12.7,6.38,6.32,14.22,6.32h53.65
		c7.84,0,14.22,6.38,14.22,14.22v48.71C82.1,77.1,75.72,83.48,67.88,83.48 M14.22,7.99c-6.92,0-12.55,5.63-12.55,12.55v48.71
		c0,6.92,5.63,12.55,12.55,12.55h53.65c6.92,0,12.55-5.63,12.55-12.55V20.55c0-6.92-5.63-12.55-12.55-12.55H14.22z"/>
	<path class="st0" d="M62.9,50.73c-0.07,1.01-1.16,1.28-2.01,0.82c0.02-0.29,0.04-0.58,0.05-0.87c0.01-0.29,0.02-0.58,0.02-0.87
		c0-1.04-0.1-2.03-0.29-2.96c-0.19-0.93-0.54-1.69-1.03-2.29c-0.5-0.59-1.2-0.89-2.12-0.89c-1.31,0-2.36,0.34-3.16,1.03
		c-0.8,0.69-1.4,1.55-1.82,2.58c-0.41,1.03-0.68,2.05-0.8,3.07c-0.02,0.39-0.06,0.84-0.11,1.36c-0.05,0.52-0.07,1.08-0.07,1.68
		c0,0.59,0.04,1.2,0.1,1.81c-0.07,0.07-0.12,0.17-0.17,0.3c-0.1,0.29-0.19,0.57-0.27,0.83c-0.08,0.27-0.17,0.51-0.27,0.73
		c-0.17,0.41-0.42,0.84-0.74,1.29c-0.32,0.45-0.76,0.67-1.29,0.67c-0.46,0-0.83-0.22-1.12-0.65c-0.29-0.43-0.51-1.01-0.67-1.72
		c-0.16-0.71-0.27-1.49-0.33-2.34c-0.06-0.85-0.09-1.68-0.09-2.5v-0.6c0-0.21,0.01-0.4,0.04-0.6c0.48-0.85,0.97-1.79,1.47-2.82
		c0.5-1.03,0.93-2.05,1.29-3.06c0.72-1.96,1.23-3.73,1.5-5.32c0.28-1.59,0.42-2.8,0.42-3.65c0-2.15-0.71-3.23-2.14-3.23
		c-0.7,0-1.31,0.28-1.81,0.85c-0.51,0.57-0.92,1.24-1.24,2.02c-0.31,0.77-0.54,1.46-0.69,2.07c-0.27,1.19-0.49,2.53-0.67,4.05
		s-0.31,3.07-0.4,4.66c-0.08,1.6-0.13,3.14-0.13,4.64c0,0.82,0.01,1.6,0.04,2.34c0.02,0.74,0.06,1.43,0.11,2.09
		c0.05,0.68,0.19,1.41,0.44,2.19c0.24,0.79,0.62,1.46,1.12,2.02c0.51,0.56,1.2,0.83,2.07,0.83c1.02,0,1.8-0.32,2.36-0.96
		c0.55-0.64,0.98-1.41,1.27-2.3c0.05-0.12,0.08-0.25,0.12-0.37c0.11,0.53,0.25,1.03,0.44,1.49c0.28,0.7,0.68,1.27,1.2,1.71
		c0.52,0.44,1.19,0.65,2.02,0.65c0.85,0,1.59-0.3,2.23-0.91c0.64-0.6,1.17-1.34,1.6-2.19c0.43-0.86,0.75-1.66,0.96-2.41
		c0.07-0.29,0.15-0.64,0.24-1.03c0.08-0.4,0.15-1.04,0.2-1.5c1.24,0.04,1.91-0.55,2.18-1.03c0,0-0.13,1.52,0.26,3.96
		c0,0-1.77,7.96-11.85,7.25c-8.19-0.58-11.41-2.99-11.16-14.59c0.01-0.43,0.01-0.54,0-0.95l2.43-0.11l0.01-1.03h-2.47
		c-0.06-13.04-0.63-20.91-4.96-20.8c0,0-2.33-0.09-2.2,4.22c0.12,3.75-1.76,13.86-2.26,16.44c-3.26,0.03-7.41,2.13-9.85,5.49
		c0.04-0.74-0.04-1.37-0.21-1.92c-0.64-2.1-2.71-3.24-5.09-2.59c-4.79,1.31-6.11,7.2-4.8,11.47c1.53,5.02,6.21,7.21,10.25,6.11
		c0.78-0.22,1.47-0.54,2.09-0.94c1.13-0.67,2.4-1.75,3.57-3.48c1.84-2.71,3.71-5.94,5.46-12.7c1.26,0.01,3.04,0.04,4.42-0.01
		c0.32,3.18,0.66,6.08,0.99,7.93c0.98,5.56,5.4,8.58,11.71,9.22c0.81,0.1,1.68,0.15,2.6,0.13l0.02,0.13l0.01-0.13h0
		c0.73-0.02,1.42-0.07,2.08-0.14c0.17-0.01,1.64-0.25,2.39-0.48c4.58-1.52,6.38-4.05,7.16-7.48c0.02,0.02,0.47,2.1,1.47,3.04
		c0.7,0.65,1.31,0.87,2.24,0.87c0.92,0,1.71-0.37,2.37-1.11s1.18-1.61,1.54-2.63c0.37-1.02,0.58-1.92,0.65-2.72v-0.18
		c0-0.37-0.08-0.55-0.23-0.55c-0.12,0-0.25,0.14-0.37,0.41c-0.22,0.68-0.42,1.31-0.62,1.91c-0.2,0.6-0.42,1.11-0.67,1.54
		c-0.34,0.68-0.65,1.14-0.94,1.38c-0.29,0.24-0.56,0.37-0.81,0.37h-0.04c-0.49,0-0.86-0.34-1.11-1.01c-0.25-0.67-0.4-1.49-0.46-2.44
		c-0.06-0.95-0.09-1.83-0.09-2.63v-1.06c0.03-1.51,0.09-3.16,0.18-4.95c0.09-1.8,0.21-3.54,0.37-5.23h3.69
		c0.18,0,0.32-0.08,0.41-0.23c0.09-0.15,0.14-0.31,0.14-0.46c0-0.34-0.14-0.51-0.42-0.51h-3.69c0.15-1.75,0.33-3.31,0.53-4.68
		c0.2-1.37,0.38-2.31,0.53-2.84c-0.22-0.06-0.44-0.11-0.67-0.14c-0.23-0.03-0.44-0.05-0.62-0.05c-0.68,0-1.21,0.13-1.61,0.39
		c-0.4,0.26-0.68,0.56-0.83,0.9c-0.21,0.49-0.4,1.32-0.55,2.49c-0.15,1.17-0.29,2.47-0.42,3.92h-1.34c-0.15,0-0.29,0.08-0.39,0.25
		c-0.11,0.17-0.16,0.33-0.16,0.48c0,0.31,0.12,0.46,0.37,0.46h1.43c-0.12,1.41-0.22,2.81-0.28,4.17c-0.06,1.37-0.11,2.56-0.14,3.57
		 M46.82,48.23c0.01-0.23,0.02-0.42,0.02-0.56c0.02-0.34,0.06-0.89,0.13-1.65c0.06-0.76,0.14-1.64,0.25-2.65
		c0.11-1,0.24-2.02,0.4-3.05c0.15-1.03,0.33-1.99,0.52-2.88c0.19-0.89,0.41-1.61,0.63-2.16c0.23-0.54,0.48-0.82,0.75-0.82
		c0.29,0,0.49,0.23,0.6,0.69c0.11,0.46,0.16,1.04,0.16,1.74c0,1.14-0.16,2.41-0.49,3.81c-0.32,1.4-0.75,2.82-1.29,4.26
		c-0.53,1.44-1.11,2.8-1.74,4.08C46.79,48.73,46.81,48.46,46.82,48.23 M59.58,53.36c-0.05,0.44-0.11,0.82-0.18,1.16
		c-0.1,0.43-0.27,0.97-0.51,1.6c-0.24,0.63-0.54,1.18-0.89,1.67c-0.35,0.48-0.78,0.72-1.29,0.72c-0.56,0-0.98-0.28-1.27-0.83
		c-0.29-0.55-0.49-1.24-0.6-2.07c-0.11-0.82-0.16-1.65-0.16-2.47c0-0.65,0.02-1.25,0.07-1.8c0.05-0.54,0.08-0.95,0.11-1.22
		c0.02-0.24,0.1-0.66,0.24-1.27c0.13-0.6,0.32-1.25,0.56-1.92c0.24-0.68,0.53-1.26,0.86-1.74c0.32-0.48,0.69-0.72,1.1-0.72
		c0.43,0,0.77,0.16,1.02,0.49c0.24,0.33,0.43,0.67,0.58,1.03c-0.24,0.12-0.42,0.37-0.55,0.74c-0.12,0.38-0.18,0.81-0.18,1.29
		c0,0.7,0.12,1.43,0.35,2.2c0.23,0.76,0.51,1.29,0.85,1.58C59.66,52.4,59.63,52.92,59.58,53.36 M25.74,58.67
		c-0.76,1.23-1.54,2.26-2.34,3.03c-0.48,0.42-0.94,0.75-1.42,1.01c-2.24,1.08-4.62,0.25-6.54-2.49c-0.67-1.1-1.09-2.35-1.21-3.42
		c-0.48-3.68,0.78-7.86,2.85-8.33c0.67-0.12,1.66,0.08,2.44,1.14c0.77,1.57,0.33,3.47-0.32,4.88c0.08,0.31,0.33,0.43,0.61,0.42
		c0.06,0,0.12-0.01,0.17-0.03c0.16-0.04,0.38-0.21,0.51-0.36c1.58-3.44,3.95-5.94,7.21-6.83c0.78-0.21,1.66-0.37,2.69-0.39
		C29.78,49.65,28.45,53.71,25.74,58.67 M32.5,45.9c1.55-7.03,2.69-15.2,2.69-15.2c1.11,10.58,0.52,4.81,1.25,15.25
		C35.17,45.97,33.55,45.93,32.5,45.9"/>
</g>
</svg>
