<?xml version="1.0" encoding="utf-8"?>
<!-- Generator: Adobe Illustrator 25.4.0, SVG Export Plug-In . SVG Version: 6.00 Build 0)  -->
<svg version="1.1" id="Layer_1" xmlns="http://www.w3.org/2000/svg" xmlns:xlink="http://www.w3.org/1999/xlink" x="0px" y="0px"
	 viewBox="0 0 168 89.81" style="enable-background:new 0 0 168 89.81;" xml:space="preserve">
<style type="text/css">
	.st0{fill:none;}
	.st1{enable-background:new    ;}
</style>
<rect x="98.05" y="8.11" class="st0" width="251.45" height="72.27"/>
<g class="st1">
	<path d="M24.96,65.9h-6.78l-6.24-18.36l-2.76,5.4V65.9H2.82v-42h6.36v17.52H9.3l8.82-17.52h6.66l-8.64,16.68L24.96,65.9z"/>
	<path d="M28.74,65.9v-42h6.36v42H28.74z"/>
	<path d="M52.26,29.91v36H45.9v-36h-6.78v-6h19.92v6H52.26z"/>
	<path d="M81.9,33.39v3.78l-6.12,0.3v-3.42c0-3.36-1.26-4.86-3.6-4.86c-2.34,0-3.6,1.5-3.6,4.26v22.92c0,2.76,1.26,4.26,3.6,4.26
		c2.34,0,3.6-1.5,3.6-4.86v-4.68l6.12,0.3v5.04c0,6.36-3.66,10.08-9.9,10.08c-6.18,0-9.78-3.72-9.78-10.08V33.39
		c0-6.36,3.6-10.08,9.78-10.08C78.24,23.31,81.9,27.03,81.9,33.39z"/>
	<path d="M101.22,65.9v-18.3h-7.56v18.3H87.3v-42h6.36v17.7h7.56v-17.7h6.36v42H101.22z"/>
	<path d="M120.78,29.79v11.88h9.3v5.88h-9.3v12.48h11.52v5.88h-17.88v-42h17.88v5.88H120.78z"/>
	<path d="M152.16,65.9l-8.34-27.84h-0.12V65.9h-6v-42h7.08l7.5,25.02h0.12V23.91h6v42H152.16z"/>
</g>
</svg>
